<?xml version="1.0" encoding="UTF-8"?>
<svg  version="1.1" xmlns="http://www.w3.org/2000/svg" width="399" height="286">
<path d="M0 0 C1.7136248 -0.00472824 1.7136248 -0.00472824 3.46186829 -0.009552 C5.33348885 -0.00651566 5.33348885 -0.00651566 7.24291992 -0.00341797 C8.52261154 -0.00437469 9.80230316 -0.00533142 11.12077332 -0.00631714 C13.8420837 -0.00779574 16.56336138 -0.00563825 19.28466797 -0.00097656 C22.73953589 0.00465845 26.19432506 0.00148294 29.64918995 -0.00454903 C32.97210581 -0.00908464 36.29500184 -0.00588199 39.61791992 -0.00341797 C41.45614067 -0.00645432 41.45614067 -0.00645432 43.33149719 -0.009552 C50.82342314 0.01051082 58.20608199 0.3805888 65.66088867 1.12939453 C65.66088867 1.78939453 65.66088867 2.44939453 65.66088867 3.12939453 C67.17682617 2.85095703 67.17682617 2.85095703 68.72338867 2.56689453 C73.73462894 2.01009006 77.89136252 2.53955248 82.66088867 4.12939453 C84.28201242 4.48109596 85.90757572 4.81264064 87.53588867 5.12939453 C88.37893555 5.29439453 89.22198242 5.45939453 90.09057617 5.62939453 C91.36288086 5.87689453 91.36288086 5.87689453 92.66088867 6.12939453 C93.50264648 6.30341797 94.3444043 6.47744141 95.21166992 6.65673828 C97.4647401 7.0915413 99.69550846 7.42163756 101.97338867 7.69189453 C103.19026367 7.83626953 104.40713867 7.98064453 105.66088867 8.12939453 C105.66088867 8.78939453 105.66088867 9.44939453 105.66088867 10.12939453 C106.21905273 9.93732422 106.7772168 9.74525391 107.35229492 9.54736328 C110.19493997 9.03270504 111.86301402 9.55258166 114.59838867 10.44189453 C115.48139648 10.72548828 116.3644043 11.00908203 117.27416992 11.30126953 C118.96100645 11.88655487 120.63083392 12.52199142 122.28588867 13.19189453 C124.41112766 14.03080466 126.37903368 14.55698623 128.59838867 15.06689453 C132.26282093 15.93478638 135.30408175 17.41369321 138.66088867 19.12939453 C140.3228332 19.4855255 141.98933967 19.82147761 143.66088867 20.12939453 C145.97338867 21.19189453 145.97338867 21.19189453 147.66088867 22.12939453 C147.66088867 22.78939453 147.66088867 23.44939453 147.66088867 24.12939453 C148.65088867 23.79939453 149.64088867 23.46939453 150.66088867 23.12939453 C153.11882031 24.22876032 155.38571333 25.3758849 157.72338867 26.69189453 C158.72559448 27.2423645 158.72559448 27.2423645 159.74804688 27.80395508 C166.60117861 31.59275202 173.41535509 35.38979334 179.66088867 40.12939453 C181.0453418 41.10585937 181.0453418 41.10585937 182.45776367 42.10205078 C183.43229492 42.79169922 184.40682617 43.48134766 185.41088867 44.19189453 C186.39573242 44.88412109 187.38057617 45.57634766 188.39526367 46.28955078 C189.14291992 46.89669922 189.89057617 47.50384766 190.66088867 48.12939453 C190.66088867 48.78939453 190.66088867 49.44939453 190.66088867 50.12939453 C191.65088867 50.45939453 192.64088867 50.78939453 193.66088867 51.12939453 C195.2930178 53.16300997 196.76817853 55.16375326 198.22338867 57.31689453 C198.62235352 57.88214844 199.02131836 58.44740234 199.43237305 59.02978516 C201.89209502 62.61465541 203.47715496 65.95731346 204.66088867 70.12939453 C205.05276367 71.36689453 205.44463867 72.60439453 205.84838867 73.87939453 C207.59340143 81.13643172 206.47570964 89.68164499 202.66088867 96.12939453 C194.10641215 107.23812287 194.10641215 107.23812287 186.66088867 109.12939453 C186.66088867 109.78939453 186.66088867 110.44939453 186.66088867 111.12939453 C186.00088867 111.78939453 185.34088867 112.44939453 184.66088867 113.12939453 C184.66088867 113.78939453 184.66088867 114.44939453 184.66088867 115.12939453 C186.97088867 115.45939453 189.28088867 115.78939453 191.66088867 116.12939453 C191.66088867 116.78939453 191.66088867 117.44939453 191.66088867 118.12939453 C192.37116211 118.21705078 193.08143555 118.30470703 193.81323242 118.39501953 C197.25776524 119.28332155 199.36913845 120.76748755 202.22338867 122.87939453 C203.15280273 123.55486328 204.0822168 124.23033203 205.03979492 124.92626953 C207.66194079 127.13027887 209.58826419 129.41492505 211.66088867 132.12939453 C212.89838867 133.27408203 212.89838867 133.27408203 214.16088867 134.44189453 C220.56877735 141.33037486 221.76563073 148.61819107 221.79370117 157.72705078 C221.66714091 160.01630253 221.28987274 161.93244305 220.66088867 164.12939453 C220.37213867 165.28439453 220.08338867 166.43939453 219.78588867 167.62939453 C218.72297064 170.93625063 217.79841653 172.49859102 215.66088867 175.12939453 C214.27283744 177.43446155 212.97175835 179.7788696 211.66088867 182.12939453 C211.00088867 182.12939453 210.34088867 182.12939453 209.66088867 182.12939453 C209.56807617 182.96470703 209.56807617 182.96470703 209.47338867 183.81689453 C208.3193756 187.10139328 206.18688731 188.78382437 203.66088867 191.12939453 C201.55156233 193.17211057 199.6526392 195.30156754 197.78588867 197.56689453 C195.31207557 200.47147111 192.81290532 202.94049408 189.66088867 205.12939453 C189.00088867 205.12939453 188.34088867 205.12939453 187.66088867 205.12939453 C187.66088867 205.78939453 187.66088867 206.44939453 187.66088867 207.12939453 C185.90057003 208.45186742 184.07431742 209.68703594 182.22338867 210.87939453 C181.12897461 211.58837891 180.03456055 212.29736328 178.90698242 213.02783203 C177.83577148 213.72134766 176.76456055 214.41486328 175.66088867 215.12939453 C173.36707645 216.71395863 171.0755364 218.30107319 168.79370117 219.90283203 C166.18292727 221.40426611 163.5200182 222.1894557 160.66088867 223.12939453 C158.60273867 224.11657335 156.56071484 225.13805278 154.53588867 226.19189453 C151.23935591 227.90726591 148.29440945 229.34904108 144.66088867 230.12939453 C143.76370117 230.59345703 143.76370117 230.59345703 142.84838867 231.06689453 C139.88793105 232.50483109 136.83037729 233.25505284 133.66088867 234.12939453 C130.86388969 235.02443421 128.12169969 235.93738994 125.41088867 237.06689453 C112.84849929 241.92054497 112.84849929 241.92054497 106.66088867 240.12939453 C106.66088867 240.78939453 106.66088867 241.44939453 106.66088867 242.12939453 C106.10401367 242.16677734 105.54713867 242.20416016 104.97338867 242.24267578 C100.84455159 242.59836952 97.30467293 243.13147141 93.47338867 244.75439453 C89.89154184 246.24025083 87.46015215 246.17419199 83.66088867 245.12939453 C83.33088867 245.78939453 83.00088867 246.44939453 82.66088867 247.12939453 C80.58666992 247.54345703 80.58666992 247.54345703 77.97338867 247.75439453 C77.0684668 247.82916016 76.16354492 247.90392578 75.23120117 247.98095703 C72.37072735 248.14615157 69.52542317 248.12939453 66.66088867 248.12939453 C64.98794931 248.4296657 63.32103483 248.7649722 61.66088867 249.12939453 C60.44401367 249.29439453 59.22713867 249.45939453 57.97338867 249.62939453 C54.791777 249.93532173 54.791777 249.93532173 52.66088867 251.12939453 C51.0986301 251.20191437 49.53327895 251.21314056 47.96948242 251.19189453 C46.55119141 251.18029297 46.55119141 251.18029297 45.10424805 251.16845703 C43.1276809 251.14277065 41.1511182 251.11673895 39.17456055 251.09033203 C33.92520633 251.04779844 28.86098044 251.20548662 23.66088867 251.95336914 C21.44088782 252.1487574 19.43127896 251.97071096 17.22338867 251.69189453 C11.39222698 250.96184418 5.59457037 251.07664292 -0.27050781 251.16674805 C-6.13544945 251.23122547 -6.13544945 251.23122547 -8.33911133 250.12939453 C-10.93055038 249.81893927 -13.52282865 249.61965541 -16.12426758 249.41064453 C-18.33911133 249.12939453 -18.33911133 249.12939453 -19.33911133 248.12939453 C-21.31568922 248.1623375 -23.2922638 248.19553526 -25.26879883 248.23095703 C-27.90268425 248.10174756 -29.94504196 247.18560161 -32.33911133 246.12939453 C-32.99911133 246.45939453 -33.65911133 246.78939453 -34.33911133 247.12939453 C-34.33911133 246.46939453 -34.33911133 245.80939453 -34.33911133 245.12939453 C-34.85473633 245.35626953 -35.37036133 245.58314453 -35.90161133 245.81689453 C-38.94492548 246.20706301 -40.70220079 245.1732134 -43.41723633 243.89111328 C-46.04767988 242.84855943 -48.57560531 242.64163312 -51.37426758 242.36767578 C-57.51525711 241.62294345 -63.49731393 239.10875812 -69.33911133 237.12939453 C-70.39098633 236.77876953 -71.44286133 236.42814453 -72.52661133 236.06689453 C-75.46411133 235.08772786 -78.40161133 234.1085612 -81.33911133 233.12939453 C-81.33911133 232.46939453 -81.33911133 231.80939453 -81.33911133 231.12939453 C-82.32911133 231.45939453 -83.31911133 231.78939453 -84.33911133 232.12939453 C-86.02947691 231.16999785 -87.69305307 230.162966 -89.33911133 229.12939453 C-91.33482456 228.45000279 -93.33505906 227.78377894 -95.33911133 227.12939453 C-98.29981865 225.73967477 -101.10943983 224.26943813 -103.90161133 222.56689453 C-106.31974446 221.14081602 -108.71142159 220.10539358 -111.33911133 219.12939453 C-111.33911133 218.46939453 -111.33911133 217.80939453 -111.33911133 217.12939453 C-112.32911133 217.12939453 -113.31911133 217.12939453 -114.33911133 217.12939453 C-115.32911133 216.13939453 -115.32911133 216.13939453 -116.33911133 215.12939453 C-117.49030652 214.37603886 -118.65959539 213.6500875 -119.83911133 212.94189453 C-123.21178395 210.85257344 -126.54578547 208.71709784 -129.83911133 206.50439453 C-130.69504883 205.93462891 -131.55098633 205.36486328 -132.43286133 204.77783203 C-133.06192383 204.23384766 -133.69098633 203.68986328 -134.33911133 203.12939453 C-134.33911133 202.13939453 -134.33911133 201.14939453 -134.33911133 200.12939453 C-134.90887695 200.03916016 -135.47864258 199.94892578 -136.06567383 199.85595703 C-138.93660489 198.93844298 -140.48748645 197.52788872 -142.71411133 195.50439453 C-143.4437207 194.85212891 -144.17333008 194.19986328 -144.92504883 193.52783203 C-150.15871013 188.32804556 -154.65529335 182.55971403 -159.02661133 176.62939453 C-159.49905273 176.00419922 -159.97149414 175.37900391 -160.45825195 174.73486328 C-163.44692889 170.68568807 -165.52605205 166.82608143 -167.33911133 162.12939453 C-167.66911133 161.30439453 -167.99911133 160.47939453 -168.33911133 159.62939453 C-168.66911133 158.80439453 -168.99911133 157.97939453 -169.33911133 157.12939453 C-169.85473633 156.01564453 -170.37036133 154.90189453 -170.90161133 153.75439453 C-172.3399123 150.12737468 -172.84007085 146.97913537 -173.33911133 143.12939453 C-173.67265625 142.35781006 -174.00620117 141.58622559 -174.34985352 140.79125977 C-175.47926266 137.75227954 -175.5976139 135.40042198 -175.60473633 132.16455078 C-175.60731445 131.0346875 -175.60989258 129.90482422 -175.61254883 128.74072266 C-175.60481445 127.56960937 -175.59708008 126.39849609 -175.58911133 125.19189453 C-175.5968457 124.02464844 -175.60458008 122.85740234 -175.61254883 121.65478516 C-175.6099707 120.52363281 -175.60739258 119.39248047 -175.60473633 118.22705078 C-175.60248047 117.2010376 -175.60022461 116.17502441 -175.59790039 115.11791992 C-175.31570402 111.85908431 -174.46363528 109.19083925 -173.33911133 106.12939453 C-173.02442734 104.67585418 -172.73063089 103.21753256 -172.46411133 101.75439453 C-171.46386914 97.08920245 -169.6045227 93.29642858 -167.33911133 89.12939453 C-166.66826198 87.77729507 -166.00157614 86.42312171 -165.33911133 85.06689453 C-162.52339253 79.46845365 -159.88418574 74.54079029 -155.33911133 70.12939453 C-153.78782544 68.12377425 -152.29032112 66.08584095 -150.80395508 64.03173828 C-149.4126531 62.22490078 -148.05986365 60.62630915 -146.33911133 59.12939453 C-145.67911133 59.12939453 -145.01911133 59.12939453 -144.33911133 59.12939453 C-144.33911133 58.46939453 -144.33911133 57.80939453 -144.33911133 57.12939453 C-143.34911133 57.12939453 -142.35911133 57.12939453 -141.33911133 57.12939453 C-141.13286133 56.40365234 -140.92661133 55.67791016 -140.71411133 54.93017578 C-138.96791526 51.37329346 -136.49173676 49.55124345 -133.33911133 47.31689453 C-132.51926758 46.7068457 -132.51926758 46.7068457 -131.68286133 46.08447266 C-127.63018276 43.12939453 -127.63018276 43.12939453 -125.33911133 43.12939453 C-124.84411133 42.13939453 -124.84411133 42.13939453 -124.33911133 41.12939453 C-122.64591887 39.77080228 -120.90942341 38.46577454 -119.15161133 37.19189453 C-118.20930664 36.50224609 -117.26700195 35.81259766 -116.29614258 35.10205078 C-113.38511599 33.16008457 -110.49229464 31.64021182 -107.33911133 30.12939453 C-106.14453124 29.51321818 -104.95189279 28.89326642 -103.76098633 28.27001953 C-102.5370597 27.63974962 -101.3131011 27.00954181 -100.08911133 26.37939453 C-99.46520508 26.05068359 -98.84129883 25.72197266 -98.19848633 25.38330078 C-96.60835693 24.57110107 -94.97591551 23.84287328 -93.33911133 23.12939453 C-92.67911133 23.45939453 -92.01911133 23.78939453 -91.33911133 24.12939453 C-91.33911133 23.46939453 -91.33911133 22.80939453 -91.33911133 22.12939453 C-90.10161133 21.67564453 -88.86411133 21.22189453 -87.58911133 20.75439453 C-85.39742204 19.93539485 -83.30778056 19.11372915 -81.21411133 18.06689453 C-78.67227394 16.79597584 -76.04404591 15.9949736 -73.33911133 15.12939453 C-72.42129883 14.82130859 -71.50348633 14.51322266 -70.55786133 14.19580078 C-67.28795611 13.11244626 -64.00619852 12.08073403 -60.71411133 11.06689453 C-59.05508789 10.55449219 -59.05508789 10.55449219 -57.36254883 10.03173828 C-52.96735044 8.71999303 -48.89773436 7.92676813 -44.33911133 7.50830078 C-42.28212503 7.21706626 -42.28212503 7.21706626 -40.39379883 6.12548828 C-37.99170465 4.96097494 -36.11943916 4.79483552 -33.46411133 4.62939453 C-30.34861772 4.38271322 -28.07381838 4.03756236 -25.08911133 3.00439453 C-21.80250333 1.95865562 -19.65680263 2.33946803 -16.33911133 3.12939453 C-16.33911133 2.46939453 -16.33911133 1.80939453 -16.33911133 1.12939453 C-15.62883789 1.14099609 -14.91856445 1.15259766 -14.18676758 1.16455078 C-13.26766602 1.17357422 -12.34856445 1.18259766 -11.40161133 1.19189453 C-10.02682617 1.20929687 -10.02682617 1.20929687 -8.62426758 1.22705078 C-5.52592247 1.09464287 -3.4794826 0.00274162 0 0 Z M11.66088867 21.12939453 C9.66088867 21.12939453 7.66088867 21.12939453 5.66088867 21.12939453 C4.31924789 21.42753693 2.98237694 21.75182646 1.66088867 22.12939453 C1.00088867 22.12939453 0.34088867 22.12939453 -0.33911133 22.12939453 C-0.33911133 22.78939453 -0.33911133 23.44939453 -0.33911133 24.12939453 C-0.99911133 24.12939453 -1.65911133 24.12939453 -2.33911133 24.12939453 C-2.83411133 23.13939453 -2.83411133 23.13939453 -3.33911133 22.12939453 C-4.65911133 22.45939453 -5.97911133 22.78939453 -7.33911133 23.12939453 C-7.33911133 23.78939453 -7.33911133 24.44939453 -7.33911133 25.12939453 C-8.20536133 24.92314453 -9.07161133 24.71689453 -9.96411133 24.50439453 C-13.73779172 24.08509671 -15.89092674 24.60577808 -19.33911133 26.12939453 C-19.66911133 26.78939453 -19.99911133 27.44939453 -20.33911133 28.12939453 C-22.84301758 28.54345703 -22.84301758 28.54345703 -25.90161133 28.75439453 C-27.41948242 28.86654297 -27.41948242 28.86654297 -28.96801758 28.98095703 C-29.75047852 29.02994141 -30.53293945 29.07892578 -31.33911133 29.12939453 C-31.33911133 29.78939453 -31.33911133 30.44939453 -31.33911133 31.12939453 C-31.86118164 31.29955078 -32.38325195 31.46970703 -32.92114258 31.64501953 C-35.39818972 32.46057971 -37.86935297 33.29200865 -40.33911133 34.12939453 C-41.33297852 34.46583984 -42.3268457 34.80228516 -43.35083008 35.14892578 C-44.8300293 35.66519531 -44.8300293 35.66519531 -46.33911133 36.19189453 C-47.26723633 36.51287109 -48.19536133 36.83384766 -49.15161133 37.16455078 C-51.50189216 37.92338812 -51.50189216 37.92338812 -52.33911133 40.12939453 C-55.01474142 41.14018812 -57.5685847 42.01264807 -60.40161133 42.44189453 C-62.63827344 43.07923561 -62.63827344 43.07923561 -64.77661133 45.56689453 C-67.36573668 48.15601989 -69.00926222 48.84868333 -72.33911133 50.12939453 C-73.71473987 51.41904629 -75.04677526 52.75628746 -76.33911133 54.12939453 C-77.14348633 54.76876953 -77.94786133 55.40814453 -78.77661133 56.06689453 C-81.39901006 58.10196427 -81.39901006 58.10196427 -83.77661133 60.56689453 C-85.66046097 62.45074417 -87.45440834 64.05223877 -89.52661133 65.69189453 C-93.01850087 68.7181988 -93.91339851 70.85225609 -95.33911133 75.12939453 C-95.99911133 75.12939453 -96.65911133 75.12939453 -97.33911133 75.12939453 C-97.74129883 76.02658203 -97.74129883 76.02658203 -98.15161133 76.94189453 C-99.33911133 79.12939453 -99.33911133 79.12939453 -100.96411133 80.69189453 C-102.68472265 82.15917733 -102.68472265 82.15917733 -102.33911133 85.12939453 C-102.99911133 85.12939453 -103.65911133 85.12939453 -104.33911133 85.12939453 C-105.00998253 86.75266323 -105.67568162 88.37807031 -106.33911133 90.00439453 C-106.71036133 90.90931641 -107.08161133 91.81423828 -107.46411133 92.74658203 C-108.45401359 95.01923311 -108.45401359 95.01923311 -108.33911133 97.12939453 C-109.32911133 97.62439453 -109.32911133 97.62439453 -110.33911133 98.12939453 C-110.72840334 99.78388558 -111.04788733 101.45485654 -111.33911133 103.12939453 C-111.71036133 104.32564453 -112.08161133 105.52189453 -112.46411133 106.75439453 C-113.65513898 110.08829677 -113.65513898 110.08829677 -112.33911133 113.12939453 C-113.32911133 113.62439453 -113.32911133 113.62439453 -114.33911133 114.12939453 C-114.30817383 115.21220703 -114.30817383 115.21220703 -114.27661133 116.31689453 C-114.33911133 119.12939453 -114.33911133 119.12939453 -114.83911133 121.56689453 C-115.40830412 124.48400758 -115.47389844 127.16407808 -115.33911133 130.12939453 C-115.00911133 130.45939453 -114.67911133 130.78939453 -114.33911133 131.12939453 C-114.2983035 133.12897817 -114.29656777 135.12984707 -114.33911133 137.12939453 C-113.67911133 137.12939453 -113.01911133 137.12939453 -112.33911133 137.12939453 C-112.66911133 139.43939453 -112.99911133 141.74939453 -113.33911133 144.12939453 C-112.67911133 144.12939453 -112.01911133 144.12939453 -111.33911133 144.12939453 C-111.40098633 145.20189453 -111.46286133 146.27439453 -111.52661133 147.37939453 C-111.32123226 151.48697583 -110.80466701 152.09486447 -108.33911133 155.12939453 C-107.60650973 157.44287325 -106.92767333 159.77514653 -106.33911133 162.12939453 C-105.67911133 162.12939453 -105.01911133 162.12939453 -104.33911133 162.12939453 C-104.33911133 163.44939453 -104.33911133 164.76939453 -104.33911133 166.12939453 C-103.67911133 166.12939453 -103.01911133 166.12939453 -102.33911133 166.12939453 C-101.26385939 168.78168265 -100.24454981 171.41307907 -99.33911133 174.12939453 C-98.67911133 174.78939453 -98.01911133 175.44939453 -97.33911133 176.12939453 C-95.63077799 177.83772786 -93.92244466 179.5460612 -92.21411133 181.25439453 C-91.78485352 181.68107422 -91.3555957 182.10775391 -90.91333008 182.54736328 C-89.69753113 183.76919597 -88.49417158 185.00341442 -87.29614258 186.24267578 C-83.13440025 190.50470106 -78.9759636 194.37739261 -74.12817383 197.84423828 C-72.52311376 198.99721811 -70.98772766 200.24575495 -69.46411133 201.50439453 C-67.52017819 203.3318779 -67.52017819 203.3318779 -65.33911133 203.12939453 C-65.00911133 203.78939453 -64.67911133 204.44939453 -64.33911133 205.12939453 C-63.34911133 205.43876953 -62.35911133 205.74814453 -61.33911133 206.06689453 C-60.34911133 206.41751953 -59.35911133 206.76814453 -58.33911133 207.12939453 C-58.00911133 208.11939453 -57.67911133 209.10939453 -57.33911133 210.12939453 C-56.61723633 210.23251953 -55.89536133 210.33564453 -55.15161133 210.44189453 C-52.04629988 211.20097066 -50.03061726 212.42258589 -47.33911133 214.12939453 C-43.40382883 216.2226299 -39.56965616 217.75031987 -35.33911133 219.12939453 C-34.33750977 219.47099609 -33.3359082 219.81259766 -32.30395508 220.16455078 C-30.80541992 220.67308594 -30.80541992 220.67308594 -29.27661133 221.19189453 C-28.27500977 221.53349609 -27.2734082 221.87509766 -26.24145508 222.22705078 C-23.41227881 223.16718611 -23.41227881 223.16718611 -20.71801758 223.62548828 C-18.33911133 224.12939453 -18.33911133 224.12939453 -16.30395508 225.15673828 C-14.08492945 226.25522214 -12.35997431 226.49164659 -9.90161133 226.69189453 C-7.34193203 226.92306425 -4.98224469 227.20697424 -2.46411133 227.75439453 C-0.16126842 228.33471531 -0.16126842 228.33471531 2.66088867 227.12939453 C2.66088867 227.78939453 2.66088867 228.44939453 2.66088867 229.12939453 C6.95088867 229.12939453 11.24088867 229.12939453 15.66088867 229.12939453 C16.00407971 207.60870966 16.33716217 186.08788064 16.66088867 164.56689453 C16.67278575 163.77683171 16.68468283 162.98676889 16.69694042 162.17276478 C17.57547932 104.59135798 17.57547932 104.59135798 17.78588867 47.00439453 C17.78417664 46.27352001 17.7824646 45.54264549 17.78070068 44.78962326 C17.75985335 36.56942931 17.72350228 28.34938333 17.66088867 20.12939453 C14.37158463 19.76253756 14.37158463 19.76253756 11.66088867 21.12939453 Z M40.66088867 24.12939453 C40.37472887 27.00023948 40.28276681 29.65443742 40.3203125 32.52636719 C40.31987442 33.39472702 40.31943634 34.26308685 40.31898499 35.15776062 C40.32108 38.03655247 40.34444447 40.91476655 40.36791992 43.79345703 C40.37351334 45.78599733 40.37778464 47.77854175 40.38078308 49.77108765 C40.39225183 55.022088 40.42173646 60.27284045 40.45489502 65.52374268 C40.4855522 70.87923834 40.4992791 76.23477396 40.5144043 81.59033203 C40.54660423 92.10346195 40.59782505 102.61640764 40.66088867 113.12939453 C44.89672438 113.15408774 49.1325221 113.17225124 53.3684082 113.18432617 C54.80982188 113.18935927 56.25123043 113.19618626 57.69262695 113.20483398 C59.76278952 113.21694436 61.83288468 113.22263301 63.90307617 113.22705078 C65.77261963 113.23490601 65.77261963 113.23490601 67.67993164 113.24291992 C70.58859973 113.3375604 70.58859973 113.3375604 72.66088867 112.12939453 C74.01433104 112.08511012 75.36979257 112.09008866 76.72338867 112.12939453 C78.02276367 112.12939453 79.32213867 112.12939453 80.66088867 112.12939453 C80.99088867 111.79939453 81.32088867 111.46939453 81.66088867 111.12939453 C83.89163511 111.05699708 86.10581058 111.1328966 88.33666992 111.19189453 C90.6232801 111.13040585 92.45789926 110.70595817 94.66088867 110.12939453 C96.22160766 109.98383525 97.78446941 109.86016685 99.34838867 109.75439453 C103.67257013 109.35494668 107.36172276 108.3718647 111.42651367 106.88720703 C114.44112206 105.86476992 117.49506672 105.25400529 120.61791992 104.65673828 C128.38951229 102.65068671 137.39927273 96.11135075 142.66088867 90.12939453 C143.34362326 88.24316141 143.34362326 88.24316141 143.66088867 86.12939453 C143.84006836 85.32888672 144.01924805 84.52837891 144.20385742 83.70361328 C145.95702154 73.82895383 144.26502512 65.72202005 138.84838867 57.31689453 C136.51327877 54.98178463 134.08980808 53.16239672 131.34448242 51.34033203 C129.58229104 50.07286259 128.1929723 48.66522409 126.66088867 47.12939453 C118.89376841 40.46814566 109.1667534 36.67916089 99.66088867 33.12939453 C98.60901367 32.71689453 97.55713867 32.30439453 96.47338867 31.87939453 C93.12308327 30.98597976 90.11260382 30.99132593 86.66088867 31.12939453 C86.16588867 30.13939453 86.16588867 30.13939453 85.66088867 29.12939453 C83.38248734 28.40030594 83.38248734 28.40030594 80.72338867 27.94189453 C79.82749023 27.76271484 78.9315918 27.58353516 78.00854492 27.39892578 C75.64290965 26.91075368 75.64290965 26.91075368 73.66088867 28.12939453 C73.16588867 27.13939453 73.16588867 27.13939453 72.66088867 26.12939453 C71.34088867 26.45939453 70.02088867 26.78939453 68.66088867 27.12939453 C68.33088867 26.46939453 68.00088867 25.80939453 67.66088867 25.12939453 C64.64394446 24.69145102 61.69512454 24.37231007 58.66088867 24.12939453 C56.72318658 23.96509408 54.78568429 23.79842032 52.84838867 23.62939453 C51.5084082 23.52111328 51.5084082 23.52111328 50.14135742 23.41064453 C47.66088867 23.12939453 47.66088867 23.12939453 45.52416992 22.47314453 C43.33268694 21.84520446 43.33268694 21.84520446 40.66088867 24.12939453 Z M51.66088867 132.12939453 C49.45359637 132.20032295 47.24421415 132.21354478 45.03588867 132.19189453 C43.84737305 132.18287109 42.65885742 132.17384766 41.43432617 132.16455078 C40.5190918 132.15294922 39.60385742 132.14134766 38.66088867 132.12939453 C38.63529588 138.72728639 38.61792107 145.32516519 38.60595703 151.9230957 C38.60096335 154.16235838 38.5941661 156.40161786 38.58544922 158.64086914 C38.48345112 174.3323512 38.48345112 174.3323512 39.40478516 189.98754883 C39.97268282 196.95444585 40.04214163 203.95611566 40.22338867 210.94189453 C40.26671639 212.52067862 40.31033443 214.09945476 40.35424805 215.67822266 C40.45979841 219.49519697 40.56145572 223.31225616 40.66088867 227.12939453 C43.1209883 228.35944435 44.79261673 228.2625348 47.53588867 228.25439453 C48.39956055 228.25697266 49.26323242 228.25955078 50.15307617 228.26220703 C52.59341045 228.21624064 52.59341045 228.21624064 54.62573242 227.62158203 C57.24680862 226.98769412 59.65641302 227.07188904 62.34838867 227.12939453 C64.1188245 227.1669137 65.89067428 227.17621012 67.66088867 227.12939453 C67.99088867 226.79939453 68.32088867 226.46939453 68.66088867 226.12939453 C71.37935745 226.09746621 74.0845969 226.19776305 76.80151367 226.28955078 C79.84045395 226.11933691 81.88059168 225.30638692 84.66088867 224.12939453 C85.73338867 224.15001953 86.80588867 224.17064453 87.91088867 224.19189453 C91.91897228 224.12509314 94.73353439 223.27144634 98.45776367 221.92236328 C100.41346754 221.21844859 102.41108252 220.63350627 104.41088867 220.06689453 C109.38062553 218.63331659 114.07659284 216.55267292 118.84838867 214.56689453 C119.89381836 214.13248047 120.93924805 213.69806641 122.01635742 213.25048828 C123.58334825 212.58619527 125.13858897 211.89054438 126.66088867 211.12939453 C126.66088867 210.46939453 126.66088867 209.80939453 126.66088867 209.12939453 C127.54776367 208.84064453 128.43463867 208.55189453 129.34838867 208.25439453 C132.16471291 207.29790705 134.91172023 206.26140507 137.66088867 205.12939453 C137.66088867 204.13939453 137.66088867 203.14939453 137.66088867 202.12939453 C138.65088867 202.12939453 139.64088867 202.12939453 140.66088867 202.12939453 C142.24422201 200.71272786 142.24422201 200.71272786 143.66088867 199.12939453 C144.32088867 198.79939453 144.98088867 198.46939453 145.66088867 198.12939453 C146.65088867 196.64439453 146.65088867 196.64439453 147.66088867 195.12939453 C148.65088867 194.13939453 148.65088867 194.13939453 149.66088867 193.12939453 C151.74398671 190.18495683 153.69401771 187.15236862 155.66088867 184.12939453 C156.12237305 183.42814453 156.58385742 182.72689453 157.05932617 182.00439453 C161.51568728 175.09028276 165.19380658 168.56747477 163.66088867 160.12939453 C160.75431167 153.0912464 157.16044097 148.96246384 150.66088867 145.12939453 C149.67088867 144.13939453 149.67088867 144.13939453 148.66088867 143.12939453 C147.67088867 143.12939453 146.68088867 143.12939453 145.66088867 143.12939453 C145.16588867 142.13939453 145.16588867 142.13939453 144.66088867 141.12939453 C141.04807857 139.68427049 138.59401025 139.12939453 134.66088867 139.12939453 C134.16588867 138.13939453 134.16588867 138.13939453 133.66088867 137.12939453 C131.71997226 136.50409682 131.71997226 136.50409682 129.34838867 136.12939453 C128.45635742 135.96568359 127.56432617 135.80197266 126.64526367 135.63330078 C122.44546267 134.92417208 118.2415175 134.24309655 114.03198242 133.59423828 C111.66088867 133.12939453 111.66088867 133.12939453 110.66088867 132.12939453 C107.50432133 132.06912594 104.36359275 132.10913694 101.20776367 132.16845703 C98.06748652 132.20511396 95.66592031 132.13107174 92.66088867 131.12939453 C89.73474162 131.03203387 86.8330843 130.98945709 83.90698242 130.99658203 C83.05032486 130.99562531 82.1936673 130.99466858 81.31105042 130.99368286 C79.50131151 130.99300267 77.69157015 130.99484577 75.88183594 130.99902344 C73.10565746 131.00438051 70.32964028 130.99906966 67.5534668 130.99267578 C65.79630498 130.99333646 64.03914326 130.99461742 62.28198242 130.99658203 C61.44863876 130.9945578 60.6152951 130.99253357 59.75669861 130.990448 C55.57550254 130.89495453 55.57550254 130.89495453 51.66088867 132.12939453 Z " fill="#14214d" transform="translate(175.339111328125,20.87060546875)"/>
<path d="M0 0 C11.88 0 23.76 0 36 0 C36 0.33 36 0.66 36 1 C24.12 1 12.24 1 0 1 C0 0.67 0 0.34 0 0 Z " fill="#14214d" transform="translate(314,285)"/>
<path d="M0 0 C0.99 0.99 1.98 1.98 3 3 C-2.61 3 -8.22 3 -14 3 C-13.67 2.34 -13.34 1.68 -13 1 C-8.6956951 -0.30433482 -4.44938275 -0.28705695 0 0 Z " fill="#14214d" transform="translate(150,283)"/>
<path d="M0 0 C0.33 0 0.66 0 1 0 C1 11.22 1 22.44 1 34 C0.67 34 0.34 34 0 34 C0 22.78 0 11.56 0 0 Z " fill="#14214d" transform="translate(215,154)"/>
<path d="M0 0 C3.4375 1 3.4375 1 6 2 C6 2.33 6 2.66 6 3 C0.39 3 -5.22 3 -11 3 C-6.50783208 -0.36912594 -5.38802925 -0.46448528 0 0 Z " fill="#14214d" transform="translate(44,283)"/>
<path d="M0 0 C0.77601563 0.07863281 1.55203125 0.15726562 2.3515625 0.23828125 C4.375 0.6875 4.375 0.6875 6.375 2.6875 C0.435 2.6875 -5.505 2.6875 -11.625 2.6875 C-7.54370407 -0.03336395 -4.83409291 -0.54161242 0 0 Z " fill="#14214d" transform="translate(248.625,283.3125)"/>
<path d="M0 0 C0 0.33 0 0.66 0 1 C-6.93 1 -13.86 1 -21 1 C-21 0.67 -21 0.34 -21 0 C-18.43788925 -0.19569589 -15.87567609 -0.38180612 -13.3125 -0.5625 C-12.59126953 -0.61857422 -11.87003906 -0.67464844 -11.12695312 -0.73242188 C-7.22685936 -0.99955159 -3.78888972 -1.00887596 0 0 Z " fill="#14214d" transform="translate(195,285)"/>
<path d="M0 0 C-6.93 0 -13.86 0 -21 0 C-21 -0.33 -21 -0.66 -21 -1 C-18.25048307 -1.22212255 -15.50134388 -1.42815588 -12.75 -1.625 C-11.97269531 -1.68945312 -11.19539063 -1.75390625 -10.39453125 -1.8203125 C-9.64042969 -1.871875 -8.88632813 -1.9234375 -8.109375 -1.9765625 C-7.07248535 -2.05511475 -7.07248535 -2.05511475 -6.01464844 -2.13525391 C-4 -2 -4 -2 0 0 Z " fill="#14214d" transform="translate(109,286)"/>
<path d="M0 0 C6.6 0 13.2 0 20 0 C20 0.33 20 0.66 20 1 C13.4 1 6.8 1 0 1 C0 0.67 0 0.34 0 0 Z " fill="#14214d" transform="translate(317,283)"/>
<path d="M0 0 C4.95 0 9.9 0 15 0 C15 0.33 15 0.66 15 1 C10.05 1 5.1 1 0 1 C0 0.67 0 0.34 0 0 Z " fill="#14214d" transform="translate(89,283)"/>
<path d="M0 0 C4.62 0 9.24 0 14 0 C14 0.33 14 0.66 14 1 C9.38 1 4.76 1 0 1 C0 0.67 0 0.34 0 0 Z " fill="#14214d" transform="translate(175,283)"/>
<path d="M0 0 C3.96 0 7.92 0 12 0 C12 0.33 12 0.66 12 1 C8.04 1 4.08 1 0 1 C0 0.67 0 0.34 0 0 Z " fill="#14214d" transform="translate(357,285)"/>
<path d="M0 0 C3.96 0 7.92 0 12 0 C12 0.33 12 0.66 12 1 C8.04 1 4.08 1 0 1 C0 0.67 0 0.34 0 0 Z " fill="#14214d" transform="translate(203,285)"/>
<path d="M0 0 C3.96 0 7.92 0 12 0 C12 0.33 12 0.66 12 1 C8.04 1 4.08 1 0 1 C0 0.67 0 0.34 0 0 Z " fill="#14214d" transform="translate(56,285)"/>
<path d="M0 0 C3.63 0 7.26 0 11 0 C11 0.33 11 0.66 11 1 C7.37 1 3.74 1 0 1 C0 0.67 0 0.34 0 0 Z " fill="#14214d" transform="translate(278,285)"/>
<path d="M0 0 C3.63 0 7.26 0 11 0 C11 0.33 11 0.66 11 1 C7.37 1 3.74 1 0 1 C0 0.67 0 0.34 0 0 Z " fill="#14214d" transform="translate(219,285)"/>
<path d="M0 0 C3.3 0 6.6 0 10 0 C10 0.33 10 0.66 10 1 C6.7 1 3.4 1 0 1 C0 0.67 0 0.34 0 0 Z " fill="#14214d" transform="translate(291,285)"/>
<path d="M0 0 C3.3 0 6.6 0 10 0 C10 0.33 10 0.66 10 1 C6.7 1 3.4 1 0 1 C0 0.67 0 0.34 0 0 Z " fill="#14214d" transform="translate(261,285)"/>
<path d="M0 0 C3.3 0 6.6 0 10 0 C10 0.33 10 0.66 10 1 C6.7 1 3.4 1 0 1 C0 0.67 0 0.34 0 0 Z " fill="#14214d" transform="translate(118,285)"/>
<path d="M0 0 C3.3 0 6.6 0 10 0 C10 0.33 10 0.66 10 1 C6.7 1 3.4 1 0 1 C0 0.67 0 0.34 0 0 Z " fill="#14214d" transform="translate(73,285)"/>
<path d="M0 0 C2.64 0 5.28 0 8 0 C8 0.33 8 0.66 8 1 C5.36 1 2.72 1 0 1 C0 0.67 0 0.34 0 0 Z " fill="#14214d" transform="translate(359,283)"/>
<path d="M0 0 C0.33 0 0.66 0 1 0 C1 2.64 1 5.28 1 8 C0.67 8 0.34 8 0 8 C0 5.36 0 2.72 0 0 Z " fill="#14214d" transform="translate(337,181)"/>
<path d="M0 0 C2.31 0 4.62 0 7 0 C7 0.33 7 0.66 7 1 C4.69 1 2.38 1 0 1 C0 0.67 0 0.34 0 0 Z " fill="#14214d" transform="translate(293,283)"/>
<path d="M0 0 C2.31 0 4.62 0 7 0 C7 0.33 7 0.66 7 1 C4.69 1 2.38 1 0 1 C0 0.67 0 0.34 0 0 Z " fill="#14214d" transform="translate(280,283)"/>
<path d="M0 0 C2.31 0 4.62 0 7 0 C7 0.33 7 0.66 7 1 C4.69 1 2.38 1 0 1 C0 0.67 0 0.34 0 0 Z " fill="#14214d" transform="translate(263,283)"/>
<path d="M0 0 C2.31 0 4.62 0 7 0 C7 0.33 7 0.66 7 1 C4.69 1 2.38 1 0 1 C0 0.67 0 0.34 0 0 Z " fill="#14214d" transform="translate(221,283)"/>
<path d="M0 0 C2.31 0 4.62 0 7 0 C7 0.33 7 0.66 7 1 C4.69 1 2.38 1 0 1 C0 0.67 0 0.34 0 0 Z " fill="#14214d" transform="translate(205,283)"/>
<path d="M0 0 C2.31 0 4.62 0 7 0 C7 0.33 7 0.66 7 1 C4.69 1 2.38 1 0 1 C0 0.67 0 0.34 0 0 Z " fill="#14214d" transform="translate(119,283)"/>
<path d="M0 0 C2.31 0 4.62 0 7 0 C7 0.33 7 0.66 7 1 C4.69 1 2.38 1 0 1 C0 0.67 0 0.34 0 0 Z " fill="#14214d" transform="translate(75,283)"/>
<path d="M0 0 C2.31 0 4.62 0 7 0 C7 0.33 7 0.66 7 1 C4.69 1 2.38 1 0 1 C0 0.67 0 0.34 0 0 Z " fill="#14214d" transform="translate(210,20)"/>
<path d="M0 0 C2.31 0 4.62 0 7 0 C7 0.33 7 0.66 7 1 C4.69 1 2.38 1 0 1 C0 0.67 0 0.34 0 0 Z " fill="#14214d" transform="translate(182,20)"/>
<path d="M0 0 C1.98 0 3.96 0 6 0 C6 0.33 6 0.66 6 1 C4.02 1 2.04 1 0 1 C0 0.67 0 0.34 0 0 Z " fill="#14214d" transform="translate(342,283)"/>
<path d="M0 0 C1.98 0 3.96 0 6 0 C6 0.33 6 0.66 6 1 C4.02 1 2.04 1 0 1 C0 0.67 0 0.34 0 0 Z " fill="#14214d" transform="translate(59,283)"/>
<path d="M0 0 C3 1 3 1 3 1 Z " fill="#14214d" transform="translate(243,269)"/>
<path d="M0 0 C3 1 3 1 3 1 Z " fill="#14214d" transform="translate(282,154)"/>
<path d="M0 0 C3 1 3 1 3 1 Z " fill="#14214d" transform="translate(236,46)"/>
<path d="M0 0 C2 1 2 1 2 1 Z " fill="#14214d" transform="translate(46,283)"/>
<path d="M0 0 C2 1 2 1 2 1 Z " fill="#14214d" transform="translate(153,269)"/>
<path d="M0 0 C2 1 2 1 2 1 Z " fill="#14214d" transform="translate(273,264)"/>
<path d="M0 0 C2 1 2 1 2 1 Z " fill="#14214d" transform="translate(128,264)"/>
<path d="M0 0 C2 1 2 1 2 1 Z " fill="#14214d" transform="translate(301,257)"/>
<path d="M0 0 C2 1 2 1 2 1 Z " fill="#14214d" transform="translate(252,245)"/>
<path d="M0 0 C2 1 2 1 2 1 Z " fill="#14214d" transform="translate(265,243)"/>
<path d="" fill="#14214d" transform="translate(0,0)"/>
<path d="M0 0 C2 1 2 1 2 1 Z " fill="#14214d" transform="translate(278,128)"/>
<path d="M0 0 C2 1 2 1 2 1 Z " fill="#14214d" transform="translate(162,46)"/>
<path d="M0 0 C2 1 2 1 2 1 Z " fill="#14214d" transform="translate(270,27)"/>
<path d="M0 0 C2 1 2 1 2 1 Z " fill="#14214d" transform="translate(131,27)"/>
<path d="" fill="#14214d" transform="translate(0,0)"/>
<path d="" fill="#14214d" transform="translate(0,0)"/>
<path d="" fill="#14214d" transform="translate(0,0)"/>
<path d="" fill="#14214d" transform="translate(0,0)"/>
<path d="" fill="#14214d" transform="translate(0,0)"/>
<path d="" fill="#14214d" transform="translate(0,0)"/>
<path d="" fill="#14214d" transform="translate(0,0)"/>
<path d="" fill="#14214d" transform="translate(0,0)"/>
<path d="" fill="#14214d" transform="translate(0,0)"/>
<path d="" fill="#14214d" transform="translate(0,0)"/>
<path d="" fill="#14214d" transform="translate(0,0)"/>
<path d="" fill="#14214d" transform="translate(0,0)"/>
<path d="" fill="#14214d" transform="translate(0,0)"/>
<path d="" fill="#14214d" transform="translate(0,0)"/>
<path d="" fill="#14214d" transform="translate(0,0)"/>
<path d="" fill="#14214d" transform="translate(0,0)"/>
<path d="" fill="#14214d" transform="translate(0,0)"/>
<path d="" fill="#14214d" transform="translate(0,0)"/>
<path d="" fill="#14214d" transform="translate(0,0)"/>
<path d="" fill="#14214d" transform="translate(0,0)"/>
<path d="" fill="#14214d" transform="translate(0,0)"/>
<path d="" fill="#14214d" transform="translate(0,0)"/>
<path d="" fill="#14214d" transform="translate(0,0)"/>
<path d="" fill="#14214d" transform="translate(0,0)"/>
<path d="" fill="#14214d" transform="translate(0,0)"/>
<path d="" fill="#14214d" transform="translate(0,0)"/>
<path d="" fill="#14214d" transform="translate(0,0)"/>
<path d="" fill="#14214d" transform="translate(0,0)"/>
<path d="" fill="#14214d" transform="translate(0,0)"/>
<path d="" fill="#14214d" transform="translate(0,0)"/>
<path d="" fill="#14214d" transform="translate(0,0)"/>
<path d="" fill="#14214d" transform="translate(0,0)"/>
<path d="" fill="#14214d" transform="translate(0,0)"/>
<path d="" fill="#14214d" transform="translate(0,0)"/>
<path d="" fill="#14214d" transform="translate(0,0)"/>
<path d="" fill="#14214d" transform="translate(0,0)"/>
<path d="" fill="#14214d" transform="translate(0,0)"/>
<path d="" fill="#14214d" transform="translate(0,0)"/>
<path d="" fill="#14214d" transform="translate(0,0)"/>
<path d="" fill="#14214d" transform="translate(0,0)"/>
<path d="" fill="#14214d" transform="translate(0,0)"/>
<path d="" fill="#14214d" transform="translate(0,0)"/>
</svg>
